<svg xmlns="http://www.w3.org/2000/svg" id="svg2" version="1.1" width="640" height="320">
  <metadata id="metadata30"/>
  <style id="style4">
    .stroked{fill:none;stroke:#656975;stroke-width:.709;stroke-linecap:round;stroke-linejoin:round;stroke-miterlimit:10}.filled{fill:#656975}
  </style>
  <path id="path4678-3" d="M262.13 157.63a1.79 1.79 0 0 0-.92-.26c-.3 0-.58.1-.84.3l-.56.4c-.03.03-.07.02-.12 0a29.5 29.5 0 0 0-.4-.2.16.16 0 0 0-.1.04l-.33.25c-.07.05-.06.1.02.14l.27.16c.05.03.05.05.02.08l-1.35.98c-.07.05-.06.1.02.14l.5.29c.08.05.16.05.23 0l1.35-.98c.04-.03.08-.02.12 0l.48.27c.08.05.15.05.22 0l.34-.25c.04-.03.06-.05.05-.07 0-.03-.03-.05-.07-.07l-.48-.27c-.04-.03-.05-.06-.01-.08l.52-.38a.6.6 0 0 1 .3-.13c.09 0 .2.03.32.1l.22.13c.08.04.16.04.22-.01l.34-.25c.04-.03.05-.05.05-.07 0-.02-.02-.04-.07-.07l-.33-.2zm6.13 3.87a1.8 1.8 0 0 0-.93-.25c-.3 0-.59.1-.85.29l-1.56 1.13c-.25.2-.37.38-.34.58.04.2.2.38.52.56l.64.37c.3.17.62.26.92.25.32 0 .6-.1.86-.28l.23-.17c.07-.06.06-.1-.02-.16l-.5-.28c-.08-.04-.16-.04-.23.01l-.2.15c-.1.07-.2.11-.31.12-.1 0-.2-.04-.33-.11l-.4-.23c-.12-.07-.2-.13-.2-.2 0-.06.04-.13.15-.2l1.5-1.1c.1-.08.2-.12.3-.12.1 0 .2.03.33.1l.4.23c.13.07.2.14.2.2 0 .07-.03.13-.14.21l-.2.15c-.07.05-.07.1.01.15l.5.28c.09.05.17.05.24 0l.23-.18c.25-.18.36-.38.33-.58-.03-.2-.2-.38-.5-.56l-.65-.36zm2.38 1.35c-.08-.04-.16-.04-.23 0l-2.95 2.17c-.07.05-.06.1.02.15l.5.28c.08.05.16.05.23 0l.93-.68c.03-.03.07-.03.12 0l.75.42c.3.17.61.26.92.25.3 0 .59-.1.84-.3l.47-.34c.26-.19.37-.38.34-.58-.03-.2-.2-.38-.5-.56l-1.44-.8zm4.3 2.43a.44.44 0 0 0-.2-.06c-.04 0-.12 0-.21.02l-3 .68c-.1.02-.2.07-.3.14l-.18.14c-.06.04-.08.09-.08.13 0 .05.05.09.11.13l1.46.82-.47.35c-.07.05-.06.1.02.15l.46.26.1.04c.04 0 .08-.02.12-.05l.47-.35.42.24a.2.2 0 0 0 .23-.02l.33-.24c.07-.05.06-.1-.02-.14l-.42-.24 1.86-1.36c.05-.05.07-.1.07-.14 0-.04-.05-.09-.11-.12l-.67-.38zm2.78 1.56a1.79 1.79 0 0 0-.92-.25c-.31 0-.6.1-.85.3l-1.56 1.15c-.26.19-.37.38-.34.58.03.2.2.38.51.55l.59.33c.3.17.61.26.92.25.3 0 .59-.1.84-.3l1.56-1.15c.25-.19.37-.38.34-.58-.03-.2-.2-.38-.5-.55l-.6-.33zm3.14 1.76c-.31-.17-.62-.26-.92-.25-.3 0-.59.11-.85.3l-1.55 1.15c-.26.2-.37.39-.34.58.03.2.2.39.5.56l.6.33c.3.17.6.25.91.24.31 0 .6-.1.85-.3l1.55-1.15c.25-.2.37-.39.34-.58-.03-.2-.2-.38-.5-.55l-.6-.33zm-6.26-2.83-1.52 1.12-.95-.54 2.47-.58zm-3.81-2.13.62.36c.13.07.2.13.2.2.01.06-.04.12-.14.2l-.42.3c-.1.08-.2.12-.3.12-.09 0-.2-.03-.32-.1l-.63-.35c-.04-.03-.05-.06-.01-.08l.88-.64c.03-.03.07-.03.12 0zm6.51 3.67.35.2c.12.07.19.13.2.2 0 .05-.05.12-.15.2l-1.5 1.1c-.1.08-.2.12-.3.13-.1 0-.2-.03-.33-.1l-.34-.2c-.13-.07-.2-.13-.2-.2 0-.05.04-.13.14-.2l1.5-1.1c.1-.08.2-.12.3-.13.1 0 .2.03.33.1zm3.14 1.76.35.2c.12.06.19.13.2.19 0 .06-.04.13-.15.2l-1.5 1.12c-.1.07-.2.12-.3.12-.1 0-.2-.03-.32-.1l-.35-.2c-.12-.06-.2-.13-.2-.19s.04-.13.15-.2l1.5-1.12c.1-.07.2-.11.29-.12.1 0 .2.03.33.1zm-18.52-10.33c-.09-.05-.15-.04-.18.04l-.38 1.24-1.92.43c-.12.02-.13.06-.02.12l.6.34c.09.06.18.06.28.03l1.13-.33h.02l-.38.77c-.03.07 0 .13.08.17-.03 0 .63.37.6.35l.11.03c.04-.01.06-.03.07-.06l.41-1.3 1.84-.4c.12-.03.13-.07.03-.13l-.6-.33a.33.33 0 0 0-.28-.03l-1.08.35-.02-.01.37-.76c.04-.06.02-.12-.08-.18l-.6-.34zm2.21 2.16c-.08-.05-.16-.05-.23 0l-.3.22c-.06.05-.05.1.03.14l1.12.64c.08.05.16.05.23 0l.29-.21c.07-.06.07-.1-.02-.15l-1.12-.64z" opacity="1" fill="#5b5e6f" fill-opacity="1" stroke="none" stroke-width=".7" stroke-linecap="round" stroke-linejoin="round" stroke-miterlimit="4" stroke-dasharray="none" stroke-opacity="1"/>
  <g id="g5059" transform="translate(0 6.7)" stroke="#5b5e6f" stroke-opacity="1" fill="none" stroke-width=".7" stroke-miterlimit="4" stroke-dasharray="none">
    <path id="path3828-0" d="M368.7 16.52 95.28 174.27c-15.78 9.1-15.78 34.9 5.26 47.32 17.8 10.52 79.6 48.34 105.16 63.1 25.56 14.76 47.32 6.88 68.36-5.26l248.62-163c21.28-14.4 13.61-40.83-6.75-52.59-20.35-11.75-105.16-52.58-105.16-52.58-9.1-5.26-26.3-3.85-42.07 5.26Z" fill-rule="evenodd" stroke-linecap="butt" stroke-linejoin="miter"/>
    <path id="path3832-1" d="M368.82 16.44c17.17-9.91 33.42-4.84 41.95.08 8.53 4.92 76.43 36.8 94.65 47.32 27.32 15.78 14.83 30.47-5.26 42.07-20.09 11.6-217.9 139.46-231.36 147.23-13.46 7.77-20.16 16.05-47.33 0L105.8 184.78c-2.44-1.44-5.16-2.84-7.4-4.18-2.64-1.52-4.47-5.55-1.18-7.45" fill-rule="evenodd" stroke-linecap="butt" stroke-linejoin="miter"/>
    <path id="rect3851-1-5-3" d="M246.86 148.87c-3.42-2.15-11.5-1-18.09 2.63-6.6 3.64-9.09 8.3-5.64 10.43 10.86 6.7 24.67 15.12 35.43 21.6 3.43 2.07 11.43.8 18.02-2.87s9.11-8.26 5.67-10.3c-12.81-7.55-22.75-13.67-22.15-13.3l4.43 2.7c2.87 1.75 5.97 3.62 4.4 2.68.78.46-9.7-5.8-22.07-13.57zm-1.7.93c10.61 6.65 32.22 19.76 17.67 10.9-12.69-7.73 5.08 3.14 17.72 10.61 2.46 1.45-.1 5.15-5.75 8.3-5.64 3.13-12.1 4.46-14.55 2.99a3800.93 3800.93 0 0 1-35.43-21.6c-2.46-1.53.08-5.27 5.73-8.38 5.64-3.11 12.16-4.35 14.61-2.82zm-39.46-25.22a1.75 1.75 0 0 0-1.73-.13l-5.2 2.95c-.48.27-.48.77 0 1.11l24.37 15.22c.49.32 1.26.36 1.74.1l5.12-2.82c.47-.25.46-.72-.03-1.04l-24.27-15.39h0zm90.08 56.57c-.5-.28-1.28-.3-1.76-.03l-5.13 2.87c-.47.26-.45.7.04 1a897.75 897.75 0 0 0 24.64 13.83 2.1 2.1 0 0 0 1.81.01l5.3-2.95c.48-.27.45-.71-.07-1a838.75 838.75 0 0 1-24.83-13.72h0zm-52.02-22.3a3.79 3.79 0 0 0-3.47-.16c-.93.52-.9 1.42.08 2.02 6.94 4.28 14.31 8.77 21.24 12.95.98.59 2.52.64 3.45.12.94-.52.9-1.4-.07-2a2237.8 2237.8 0 0 1-21.23-12.93h0zm-51.03-26.89a1.77 1.77 0 0 0-1.74-.1l-5.17 2.96c-.48.28-.47.77.01 1.1l24.32 15.12c.5.32 1.27.35 1.74.1l5.11-2.84c.47-.26.46-.72-.03-1.04-7.92-5.06-24.24-15.3-24.24-15.3h0zm90.23 56.36a1.94 1.94 0 0 0-1.74-.05l-5.09 2.84c-.47.26-.45.71.04 1 7.9 4.67 16.13 9.44 24.3 13.97.51.29 1.3.3 1.79.03l5.23-2.9c.48-.27.46-.7-.06-.99a953.99 953.99 0 0 1-24.47-13.9h0zm-107.03-50.73a1.78 1.78 0 0 0-1.74-.1c-2.3 1.34-4.61 2.67-6.93 4-.48.27-.47.76.01 1.08 4.66 3.1 8.93 6.1 13.67 9.1.5.3 1.28.35 1.75.08l6.87-3.85c.48-.27.46-.74-.03-1.06-4.72-3.04-8.96-6.08-13.6-9.25h0zm20.71 13.8a1.88 1.88 0 0 0-1.74-.09 3787.4 3787.4 0 0 1-6.85 3.82c-.47.27-.46.73.04 1.04 4.74 2.96 9.6 5.95 14.34 8.86.5.3 1.28.34 1.75.08l6.78-3.75c.48-.26.45-.72-.04-1.02-4.73-2.93-9.55-5.94-14.28-8.94h0zm21.42 13.34a1.9 1.9 0 0 0-1.74-.08l-6.77 3.74c-.47.25-.44.7.05 1.01l14.3 8.7c.49.3 1.26.33 1.72.07l6.72-3.72c.47-.26.45-.7-.05-1-4.65-2.84-9.55-5.84-14.23-8.72h0zm21.33 13.04a1.9 1.9 0 0 0-1.73-.08l-6.7 3.73c-.47.25-.45.7.05 1l14.16 8.6c.48.3 1.25.33 1.71.07 2.23-1.25 4.45-2.5 6.7-3.74.45-.26.44-.7-.05-1l-14.14-8.58h0zm21.2 12.83a1.9 1.9 0 0 0-1.73-.06l-6.69 3.76c-.46.26-.44.7.05 1 4.66 2.82 9.45 5.7 14.12 8.48.49.3 1.26.32 1.72.06l6.72-3.8c.47-.26.45-.7-.04-1-4.7-2.77-9.48-5.63-14.15-8.44h0zm21.27 12.62c-.5-.28-1.27-.3-1.74-.04l-6.74 3.8c-.47.27-.44.71.05 1 4.72 2.78 10.5 6.05 15.32 8.77.5.28 1.28.3 1.76.03l6.84-3.84c.48-.26.45-.7-.05-.99a968.43 968.43 0 0 1-15.44-8.72h0zm-120.3-57.76a1.84 1.84 0 0 0-1.75-.08l-7 3.94c-.49.27-.49.75 0 1.06 4.7 3 9.02 5.77 13.8 8.7.5.32 1.29.35 1.77.09l6.92-3.83c.48-.26.47-.73-.03-1.04a761.74 761.74 0 0 1-13.71-8.84h0zM182.94 159c-.5-.3-1.28-.34-1.76-.08l-7.76 4.27c-.48.26-.46.72.04 1.02 7.15 4.34 15.51 9.35 22.65 13.64.5.3 1.29.34 1.76.08l7.6-4.19c.48-.25.45-.7-.04-1A3261.6 3261.6 0 0 1 182.94 159h0zm28.76 17.54c-.5-.3-1.27-.33-1.73-.08-2.53 1.4-5.06 2.8-7.6 4.18-.46.26-.43.7.07 1 7.9 4.76 14.59 8.8 22.4 13.54.5.3 1.26.33 1.72.07l7.47-4.2c.46-.25.44-.7-.05-1l-22.28-13.51h0zm28.47 17.28a1.88 1.88 0 0 0-1.71-.07l-7.46 4.2c-.46.25-.43.7.06 1 7.01 4.27 15.12 9.2 22.1 13.4.48.3 1.24.32 1.7.05l7.42-4.26c.46-.26.44-.7-.05-1-7.13-4.26-14.93-9-22.06-13.32h0zm28.25 17a1.88 1.88 0 0 0-1.72-.05l-6.6 3.8c-.46.27-.43.72.06 1 4.7 2.8 10.2 6.27 14.96 9 .5.29 1.27.3 1.72.03 2.2-1.28 4.42-2.55 6.66-3.83.47-.27.44-.71-.06-1-4.79-2.72-10.31-6.16-15.02-8.95h0zm-121.15-58.1a1.92 1.92 0 0 0-1.77-.08c-2.37 1.3-4.75 2.59-7.14 3.87-.5.26-.5.73 0 1.03 4.74 2.93 9.14 6.13 13.98 9.02.5.3 1.3.34 1.8.08 2.35-1.25 4.69-2.5 7.02-3.77.49-.26.47-.71-.03-1.02-4.8-2.92-9.15-6.15-13.86-9.13h0zm21.85 13.85c-.5-.3-1.3-.34-1.77-.08-2.61 1.4-5.23 2.81-7.87 4.2-.48.26-.47.71.04 1.01-3.89-2.3 26.9 15.85 23 13.54a2 2 0 0 0 1.76.09l7.65-4.16c.47-.25.45-.7-.06-1-6.98-4.17-15.76-9.4-22.74-13.6h0zm29.1 17.4c-.5-.3-1.28-.34-1.75-.09l-7.6 4.15c-.48.26-.45.7.06 1 7.82 4.64 15 8.94 22.7 13.59.5.3 1.26.33 1.72.07l7.42-4.18c.46-.26.43-.7-.07-1-7.74-4.7-14.64-8.85-22.48-13.55h0zm28.72 17.32c-.5-.3-1.26-.33-1.71-.08l-7.4 4.2c-.45.26-.41.7.09 1l22.27 13.53c.49.3 1.24.32 1.69.06 2.4-1.43 4.83-2.85 7.26-4.27.45-.27.42-.72-.07-1.01-6.84-4.13-15.23-9.24-22.13-13.43h0zm28.32 17.14a1.83 1.83 0 0 0-1.7-.05 1185.8 1185.8 0 0 0-6.45 3.82c-.44.26-.4.71.09 1 4.7 2.83 10.05 6.33 14.8 9.09.49.28 1.24.3 1.68.03 2.13-1.3 4.28-2.58 6.45-3.87.45-.26.41-.7-.08-1-4.75-2.73-10.1-6.2-14.79-9.02h0zm-122.15-57.66c-.5-.3-1.3-.34-1.8-.08a654.5 654.5 0 0 1-7.33 3.76c-.5.25-.51.7-.01 1 4.81 2.88 9.47 5.66 14.4 8.51.51.3 1.33.34 1.83.08 2.4-1.21 4.8-2.44 7.17-3.68.5-.25.48-.7-.03-1-4.89-2.88-9.44-5.67-14.23-8.6h0zm22.01 13.25a2.08 2.08 0 0 0-1.8-.08 871.8 871.8 0 0 1-8.01 4.12c-.5.25-.48.7.04.99 8.36 4.8 15.1 8.66 23.46 13.5.52.3 1.32.34 1.8.09l7.7-4.1c.48-.26.45-.7-.06-1-9.5-5.58-13.62-7.96-23.13-13.52h0zm29.58 17.31a2 2 0 0 0-1.77-.08l-7.65 4.1c-.48.26-.44.7.08 1 7.91 4.62 15.36 9.03 23.14 13.68.5.3 1.28.35 1.73.09l7.37-4.17c.45-.26.42-.71-.08-1.01-7.72-4.65-14.98-8.98-22.82-13.6h0zm29.13 17.42c-.5-.3-1.26-.34-1.71-.08l-7.33 4.2c-.45.25-.4.7.1 1 8.2 4.95 14.53 8.8 22.61 13.7.5.3 1.25.33 1.68.06l7.1-4.3c.45-.26.4-.71-.09-1.01-11.84-7.17-10.42-6.35-22.36-13.57h0zm28.59 17.33c-.5-.3-1.24-.32-1.68-.06l-6.3 3.84c-.43.27-.38.73.12 1.02 4.75 2.87 9.99 6.25 14.75 9.04.5.3 1.24.3 1.67.04a599.2 599.2 0 0 1 6.2-3.92c.44-.27.4-.72-.1-1-4.74-2.77-9.94-6.12-14.66-8.96h0zM118.4 168.23c-.5-.3-1.33-.33-1.85-.08-2.54 1.24-4.9 2.6-7.48 3.82-.53.25-.55.69-.03.98 4.9 2.82 10.03 5.72 15.06 8.54.53.3 1.37.33 1.89.09 2.48-1.19 4.83-2.56 7.28-3.77.5-.25.5-.7-.03-.99-4.96-2.83-10-5.74-14.84-8.59h0zm22.45 13.09a2.2 2.2 0 0 0-1.84-.1 670.63 670.63 0 0 1-8.21 4.01c-.51.24-.5.68.04.98 8.32 4.64 15.78 8.8 24.1 13.53.53.3 1.35.35 1.83.1 2.61-1.33 5.22-2.67 7.8-4.03.49-.24.45-.69-.07-.99-8.3-4.78-15.35-8.78-23.65-13.5h0zm30.24 17.31a2.07 2.07 0 0 0-1.8-.1c-2.56 1.36-5.14 2.71-7.72 4.05-.48.25-.44.7.1 1 8.1 4.64 15.8 9.14 23.75 13.85.52.3 1.3.35 1.75.1l7.34-4.16c.45-.25.4-.7-.1-1.01-7.83-4.67-15.35-9.1-23.32-13.73h0zm29.76 17.59c-.51-.3-1.28-.35-1.73-.09l-7.27 4.18c-.45.26-.4.72.13 1.02 8.05 4.82 15.2 9.15 23.12 13.93.5.31 1.25.34 1.68.07 2.3-1.44 4.61-2.89 6.94-4.33.43-.26.38-.72-.12-1.03-7.96-4.82-14.67-8.9-22.75-13.75h0zm29.06 17.57c-.5-.3-1.25-.33-1.67-.06-2.06 1.29-4.1 2.58-6.13 3.88-.42.27-.36.73.15 1.03 4.89 2.95 9.74 5.86 14.58 8.72.5.3 1.24.31 1.65.03a524.9 524.9 0 0 1 5.98-3.97c.42-.28.35-.73-.15-1.03-4.78-2.8-9.63-5.72-14.41-8.6h0z" opacity="1" fill-opacity=".57" stroke-linecap="round" stroke-linejoin="round"/>
    <path id="rect3851-1-5-8-9-0" d="M389.74 24.4c-1.94-1.07-4.98-1.16-6.84-.2-25.05 13.03-139.16 83.33-164.39 96.13-1.88.95-1.73 2.73.33 3.98 16.81 10.18 96.6 54.2 112.36 62.9 2.06 1.13 5.18 1.22 7 .2 27.85-15.66 131.53-86.48 159.33-102.53 1.8-1.04 1.66-2.73-.3-3.8l-107.5-56.67Z" opacity="1" fill-opacity=".57" stroke-linecap="round" stroke-linejoin="round"/>
    <path id="rect3851-1-5-8-9-1-2" d="M497.53 84.88c4.13-2.2 3.3-6.1.28-7.68L389.74 20.83h0c-1.94-1.07-4.98-1.16-6.84-.2-25.05 13.03-139.16 83.32-164.39 96.13-4.39 2.53-2.8 5.67-.74 6.92.8.49 1.76 1.06 2.85 1.7" opacity="1" fill-opacity=".57" stroke-linecap="round" stroke-linejoin="round"/>
    <path id="rect3851-1-5-81-1" d="M221.62 158.88c-.43 1.45.12 5.47 1.5 6.33 10.87 6.71 24.68 15.13 35.44 21.61 3.43 2.07 11.43.8 18.02-2.88 4.08-2.27 6.6-4.9 7.11-7.04.22-.93.4-3.27.07-4.62m-58.1-10.77c-.42-1.7.99-4 5.02-6.22 5.64-3.1 11.85-5.24 14.3-3.7 10.6 6.65 32.22 19.76 17.66 10.9-12.27-7.48 5 3 17.52 10.42.42.25 1.25 1.33.05 2.54m-81.62-47.78c-.48.27-.3 3.79.18 4.13l24.37 15.22c.49.32 1.26.36 1.74.1l5.12-2.82c.47-.26.69-3.76.2-4.08m58.49 44.05c-.48.27-.25 3.71.24 4a897.75 897.75 0 0 0 24.64 13.83 2.1 2.1 0 0 0 1.81.02l5.3-2.95c.48-.27.7-3.6.18-3.87m-81.16-36.06c-.57 1.01-.5 2.66.49 3.26 6.94 4.28 14.3 8.77 21.23 12.94.98.6 2.52.65 3.46.13.93-.52 1.5-2.66.58-3.42m-79.82-37.06c-.47.27-.3 3.78.2 4.12l24.31 15.12c.5.31 1.27.35 1.74.09l5.11-2.83c.47-.26.68-3.77.2-4.08m58.73 43.89c-.47.26-.25 3.7.24 4 7.9 4.67 16.13 9.44 24.3 13.97.51.28 1.3.3 1.79.03l5.23-2.9c.48-.27.7-3.59.2-3.87m-140.6-60.88c-.48.28-.3 3.78.18 4.1 4.66 3.1 8.93 6.1 13.67 9.1.5.31 1.28.35 1.75.09l6.87-3.86c.48-.26.69-3.77.2-4.1m-1.96 8.29c-.47.26-.2 3.77.29 4.08 4.74 2.95 9.6 5.95 14.34 8.85.5.3 1.28.34 1.75.09 2.26-1.25 4.53-2.5 6.78-3.76.48-.25.72-3.7.23-4.02m-1.88 8.02c-.47.26-.2 3.75.3 4.06l14.28 8.7c.5.3 1.27.33 1.73.07l6.72-3.72c.47-.26.71-3.7.22-4m-1.81 7.96c-.46.26-.24 3.71.26 4 4.4 2.69 9.77 5.95 14.16 8.6.48.3 1.25.34 1.71.08l6.7-3.75c.45-.26.6-3.74.11-4.04m-1.72 8c-.46.25-.24 3.7.25 4 4.66 2.81 9.45 5.7 14.12 8.48.49.3 1.26.32 1.72.05l6.72-3.79c.47-.26.7-3.58.2-3.87m-1.8 7.81c-.47.26-.24 3.71.25 4 4.72 2.78 10.5 6.05 15.32 8.76.5.29 1.28.3 1.76.04l6.84-3.84c.48-.27.7-3.58.2-3.87M152.62 149.6c-.48.27-.3 3.76.18 4.08 4.7 3 9.02 5.76 13.8 8.7.5.31 1.29.35 1.77.08l6.92-3.82c.48-.27.7-3.77.2-4.08m-2.33 8.9c-.48.26-.21 3.75.29 4.06 7.15 4.34 15.51 9.35 22.65 13.64.5.3 1.29.33 1.76.08l7.6-4.19c.48-.26.72-3.7.22-4m-3.56 7.86c-.47.25-.2 3.74.3 4.04 7.92 4.76 14.6 8.8 22.41 13.53.5.3 1.26.34 1.72.08l7.47-4.2c.46-.25.7-3.7.21-4m-3.45 7.9c-.45.25-.22 3.7.27 4 7.01 4.26 15.12 9.2 22.1 13.4.48.29 1.24.31 1.7.05l7.42-4.26c.46-.27.68-3.59.2-3.88m-2.59 7.31c-.45.27-.22 3.71.27 4 4.7 2.8 10.2 6.27 14.96 9 .5.28 1.27.3 1.72.03l6.66-3.84c.47-.26.69-3.58.19-3.86m-145.5-63.42c-.5.27-.33 3.75.17 4.06 4.74 2.93 9.14 6.13 13.98 9.02.5.3 1.3.33 1.8.07 2.35-1.25 4.69-2.5 7.02-3.76.49-.26.7-3.76.2-4.06m-2.12 8.84c-.49.26-.23 3.75.28 4.05l23 13.54a2 2 0 0 0 1.76.08l7.65-4.15c.47-.25.71-3.7.21-4m-3.53 7.82c-.47.25-.19 3.74.32 4.04 7.82 4.64 15 8.93 22.7 13.58.5.3 1.26.34 1.72.08 2.47-1.4 4.93-2.79 7.42-4.18.46-.26.7-3.71.2-4.01m-3.34 7.9c-.45.27-.21 3.71.29 4.02l22.27 13.52c.49.3 1.24.32 1.69.06 2.4-1.43 4.83-2.85 7.27-4.28.44-.26.66-3.59.17-3.88m-2.42 7.35c-.44.27-.2 3.72.3 4.01 4.7 2.83 10.05 6.33 14.8 9.08.49.29 1.24.3 1.68.04 2.13-1.3 4.28-2.58 6.45-3.87.45-.27.66-3.59.16-3.87m-146.48-63.16c-.51.26-.34 3.73.16 4.03 4.81 2.87 9.47 5.66 14.4 8.5.51.3 1.33.34 1.83.09 2.4-1.22 4.8-2.45 7.17-3.68.5-.25.7-3.74.2-4.05m-2.51 8.7c-.5.25-.23 3.74.29 4.04 8.36 4.8 15.1 8.65 23.46 13.5.52.3 1.32.34 1.8.09l7.7-4.1c.48-.26.71-3.7.2-4m-3.48 7.77c-.47.25-.19 3.74.33 4.04 7.91 4.62 15.36 9.02 23.14 13.68.5.3 1.28.34 1.73.09l7.37-4.18c.45-.26.68-3.7.18-4m-3.2 7.92c-.44.26-.19 3.71.32 4.01 8.2 4.94 14.52 8.8 22.6 13.7.5.3 1.25.33 1.68.06l7.1-4.3c.45-.26.65-3.6.16-3.89m-2.2 7.42c-.43.27-.18 3.72.32 4.02 4.75 2.87 9.99 6.24 14.75 9.04.5.29 1.24.3 1.67.03l6.2-3.91c.44-.27.64-3.6.15-3.88m-148.44-63.22c-.53.24-.37 3.7.15 4 4.9 2.81 10.03 5.71 15.06 8.53.53.3 1.37.34 1.89.1 2.48-1.2 4.83-2.57 7.28-3.78.5-.24.72-3.73.2-4.02m-2.92 8.4c-.5.25-.24 3.73.29 4.02 8.32 4.64 15.78 8.81 24.1 13.54.53.3 1.35.35 1.83.1 2.61-1.33 5.22-2.68 7.8-4.03.49-.25.72-3.7.2-4m-3.45 7.73c-.48.25-.19 3.73.35 4.04 8.1 4.64 15.8 9.14 23.75 13.85.52.3 1.3.35 1.75.1l7.34-4.16c.45-.26.67-3.71.16-4.02m-3.03 7.96c-.83 1.06-.18 3.71.34 4.02 8.05 4.81 15.2 9.15 23.12 13.93.5.3 1.25.34 1.68.07 2.3-1.45 4.61-2.89 6.94-4.33.43-.27.62-3.6.12-3.9m-1.94 7.5c-.42.28-.15 3.74.36 4.04 4.89 2.95 9.74 5.86 14.58 8.71.5.3 1.24.32 1.65.04 1.97-1.33 3.97-2.66 5.98-3.98.42-.27.6-3.6.1-3.9" opacity="1" fill-opacity=".57" stroke-linecap="round" stroke-linejoin="round"/>
  </g>
  <path id="rect3851-1-5-8-9-0-5" d="M389.43 31.7a7.84 7.84 0 0 0-6.73-.15c-24.85 12.93-138.05 82.66-163.08 95.37-1.86.94-2.73 2.54-.68 3.78 16.67 10.1 96.84 53.94 112.47 62.56 2.05 1.13 5.14 1.21 6.94.2 27.63-15.54 130.5-85.8 158.07-101.72 1.78-1.03 2.81-2.35-.3-3.75L389.42 31.7Z" opacity="1" fill="none" fill-opacity=".57" stroke="#5b5e6f" stroke-width=".7" stroke-linecap="round" stroke-linejoin="round" stroke-miterlimit="4" stroke-dasharray="none" stroke-opacity="1"/>
  <path id="path3832-1-4" d="M94.75 181.28c-5.04 2.9 3.76 6.55 10.47 10.51l115.68 68.36c23.66 13.66 30.58 14.13 37.38 10.2 10.52-6.07 254.78-163 254.78-163 13.39-10.51 15.48-24.06-7.64-36.8" fill="none" fill-rule="evenodd" stroke="#5b5e6f" stroke-width=".7" stroke-linecap="butt" stroke-linejoin="miter" stroke-miterlimit="4" stroke-dasharray="none" stroke-opacity="1"/>
</svg>
